<svg width="24" height="24" viewBox="0 0 24 24" fill="none" xmlns="http://www.w3.org/2000/svg">
<path d="M11.25 0C12.2812 0 13.2773 0.132813 14.2383 0.398438C15.1992 0.664062 16.0938 1.04297 16.9219 1.53516C17.75 2.02734 18.5078 2.61328 19.1953 3.29297C19.8828 3.97266 20.4688 4.73047 20.9531 5.56641C21.4375 6.40234 21.8164 7.30078 22.0898 8.26172C22.3633 9.22266 22.5 10.2188 22.5 11.25C22.5 12.2812 22.3672 13.2773 22.1016 14.2383C21.8359 15.1992 21.457 16.0938 20.9648 16.9219C20.4727 17.75 19.8867 18.5078 19.207 19.1953C18.5273 19.8828 17.7695 20.4688 16.9336 20.9531C16.0977 21.4375 15.1992 21.8164 14.2383 22.0898C13.2773 22.3633 12.2812 22.5 11.25 22.5C10.2188 22.5 9.22266 22.3672 8.26172 22.1016C7.30078 21.8359 6.40625 21.457 5.57812 20.9648C4.75 20.4727 3.99219 19.8867 3.30469 19.207C2.61719 18.5273 2.03125 17.7695 1.54688 16.9336C1.0625 16.0977 0.683594 15.2031 0.410156 14.25C0.136719 13.2969 0 12.2969 0 11.25C0 10.2188 0.132813 9.22266 0.398438 8.26172C0.664062 7.30078 1.04297 6.40625 1.53516 5.57812C2.02734 4.75 2.61328 3.99219 3.29297 3.30469C3.97266 2.61719 4.73047 2.03125 5.56641 1.54688C6.40234 1.0625 7.29687 0.683594 8.25 0.410156C9.20313 0.136719 10.2031 0 11.25 0ZM18 10.5H12V4.5H10.5V10.5H4.5V12H10.5V18H12V12H18V10.5Z" fill="#FF5F00"/>
</svg>
