<svg width="27" height="6" viewBox="0 0 27 6" fill="none" xmlns="http://www.w3.org/2000/svg">
<path d="M3 0.00195185C3.4216 0.00195185 3.81197 0.080026 4.17111 0.236174C4.53025 0.392323 4.84255 0.603123 5.108 0.868575C5.37346 1.13403 5.59206 1.45413 5.76383 1.82889C5.93559 2.20364 6.01366 2.59401 5.99805 3C5.99805 3.4216 5.91998 3.81197 5.76383 4.17111C5.60768 4.53025 5.39688 4.84255 5.13143 5.108C4.86597 5.37346 4.54587 5.59206 4.17111 5.76382C3.79636 5.93559 3.40599 6.01366 3 5.99805C2.5784 5.99805 2.18803 5.91997 1.82889 5.76382C1.46975 5.60768 1.15745 5.39688 0.891998 5.13142C0.626545 4.86597 0.407938 4.54587 0.236174 4.17111C0.0644112 3.79636 -0.013663 3.40599 0.00195186 3C0.00195186 2.5784 0.080026 2.18803 0.236174 1.82889C0.392323 1.46975 0.603123 1.15745 0.868575 0.891997C1.13403 0.626545 1.45413 0.407938 1.82889 0.236174C2.20364 0.0644112 2.59401 -0.013663 3 0.00195185ZM13.1356 0.00195185C13.5572 0.00195185 13.9476 0.080026 14.3067 0.236174C14.6659 0.392323 14.9782 0.603123 15.2436 0.868575C15.5091 1.13403 15.7277 1.45413 15.8994 1.82889C16.0712 2.20364 16.1493 2.59401 16.1337 3C16.1337 3.4216 16.0556 3.81197 15.8994 4.17111C15.7433 4.53025 15.5325 4.84255 15.267 5.108C15.0016 5.37346 14.6815 5.59206 14.3067 5.76382C13.932 5.93559 13.5416 6.01366 13.1356 5.99805C12.714 5.99805 12.3236 5.91997 11.9645 5.76382C11.6054 5.60768 11.2931 5.39688 11.0276 5.13142C10.7622 4.86597 10.5435 4.54587 10.3718 4.17111C10.2 3.79636 10.1219 3.40599 10.1376 3C10.1376 2.5784 10.2156 2.18803 10.3718 1.82889C10.5279 1.46975 10.7387 1.15745 11.0042 0.891997C11.2696 0.626545 11.5897 0.407938 11.9645 0.236174C12.3393 0.0644112 12.7296 -0.013663 13.1356 0.00195185ZM23.2712 0.00195185C23.6928 0.00195185 24.0832 0.080026 24.4423 0.236174C24.8015 0.392323 25.1138 0.603123 25.3792 0.868575C25.6447 1.13403 25.8633 1.45413 26.035 1.82889C26.2068 2.20364 26.2849 2.59401 26.2693 3C26.2693 3.4216 26.1912 3.81197 26.035 4.17111C25.8789 4.53025 25.6681 4.84255 25.4026 5.108C25.1372 5.37346 24.8171 5.59206 24.4423 5.76382C24.0676 5.93559 23.6772 6.01366 23.2712 5.99805C22.8496 5.99805 22.4592 5.91997 22.1001 5.76382C21.741 5.60768 21.4287 5.39688 21.1632 5.13142C20.8978 4.86597 20.6792 4.54587 20.5074 4.17111C20.3356 3.79636 20.2576 3.40599 20.2732 3C20.2732 2.5784 20.3512 2.18803 20.5074 1.82889C20.6635 1.46975 20.8743 1.15745 21.1398 0.891997C21.4052 0.626545 21.7254 0.407938 22.1001 0.236174C22.4749 0.0644112 22.8652 -0.013663 23.2712 0.00195185Z" fill="#EEECE5"/>
</svg>
